{"glyphs":{":":{"x_min":0,"x_max":261,"ha":261,"o":"m 66 413 l 66 557 l 208 557 l 208 413 z m 66 65 l 66 208 l 208 208 l 208 65 z"},"$":{"x_min":0,"x_max":486,"ha":486,"o":"m 235 -103 l 235 -10 q 132 -6 81 56 q 30 118 26 241 l 167 265 q 169 215 178 182 q 186 148 203 132 q 220 115 247 115 q 278 115 290 135 q 301 155 301 181 q 301 232 278 266 q 254 301 213 336 l 128 409 q 99 436 76 464 q 53 492 40 528 q 26 564 26 613 q 26 707 80 760 q 133 812 223 819 l 223 908 l 271 908 l 271 819 q 325 816 360 794 q 394 773 412 740 q 430 708 438 670 q 446 631 448 595 l 305 574 q 304 611 299 640 q 294 668 281 684 q 268 700 241 699 q 213 698 198 677 q 184 656 184 630 q 184 584 206 556 q 228 528 256 502 l 339 430 q 372 400 400 365 q 428 330 445 288 q 462 245 462 190 q 462 137 440 94 q 419 50 378 23 q 338 -4 283 -9 l 283 -103 z"},"?":{"x_min":0,"x_max":485,"ha":485,"o":"m 136 211 l 136 339 q 182 376 219 419 q 256 462 278 510 q 299 559 299 613 q 299 652 284 672 q 268 691 237 691 q 210 691 194 675 q 178 659 178 632 q 178 616 182 604 q 185 592 189 578 l 52 547 q 45 569 41 590 q 37 612 37 634 q 37 721 90 770 q 142 820 240 820 q 340 820 394 767 q 448 714 448 616 q 448 554 427 500 q 406 446 366 398 q 327 351 273 309 l 273 211 z m 131 0 l 131 145 l 279 145 l 279 0 z"},"<":{"x_min":0,"x_max":393,"ha":393,"o":"m 335 86 l 31 300 l 31 422 l 335 636 l 335 502 l 140 361 l 335 220 z"},"'":{"x_min":0,"x_max":161,"ha":161,"o":"m 24 520 l 24 810 l 149 810 l 98 520 z"},"=":{"x_min":0,"x_max":437,"ha":437,"o":"m 61 441 l 61 536 l 376 536 l 376 441 z m 61 254 l 61 349 l 376 349 l 376 254 z"},"a":{"x_min":0,"x_max":465,"ha":465,"o":"m 167 -10 q 126 -10 96 11 q 67 32 52 64 q 37 96 37 130 q 37 184 58 221 q 79 258 113 283 q 147 308 189 326 q 231 344 273 359 l 273 413 q 273 432 270 446 q 267 460 258 468 q 250 475 234 475 q 218 475 210 468 q 201 462 198 450 q 194 437 193 422 l 190 382 l 47 388 q 52 490 100 539 q 149 588 247 588 q 335 588 377 540 q 419 491 419 412 l 419 143 q 419 109 420 82 q 422 56 424 36 q 427 15 429 0 l 293 0 q 290 22 286 48 q 282 74 280 83 q 270 47 242 18 q 214 -10 167 -10 z m 222 97 q 233 97 243 102 q 253 107 260 115 q 268 123 273 130 l 273 289 q 252 276 234 264 q 216 251 203 236 q 190 221 183 203 q 176 185 176 162 q 176 132 188 114 q 200 97 222 97 z"},"L":{"x_min":0,"x_max":433,"ha":433,"o":"m 61 0 l 61 810 l 226 810 l 226 112 l 416 112 l 416 0 z"},"3":{"x_min":0,"x_max":506,"ha":506,"o":"m 256 -14 q 175 -14 128 16 q 80 47 59 102 q 38 158 38 230 l 38 259 l 192 259 q 192 257 192 248 q 192 240 192 232 q 193 193 198 168 q 204 142 218 129 q 232 116 258 116 q 285 116 298 130 q 311 143 316 169 q 321 195 321 233 q 321 294 303 328 q 285 361 231 362 q 230 362 221 362 q 212 362 204 362 l 204 476 q 210 476 216 476 q 223 476 228 476 q 282 476 302 505 q 321 534 321 596 q 321 644 307 671 q 293 698 255 698 q 217 698 205 668 q 193 638 192 591 q 192 583 192 574 q 192 564 192 555 l 38 555 l 38 599 q 38 670 64 720 q 90 769 138 795 q 186 821 255 821 q 324 821 373 796 q 422 771 448 723 q 473 675 473 604 q 473 533 444 486 q 414 439 371 426 q 401 416 424 393 q 447 370 460 332 q 473 293 473 236 q 473 163 452 106 q 431 50 383 18 q 335 -14 256 -14 z"},";":{"x_min":0,"x_max":270,"ha":270,"o":"m 89 -102 l 76 -51 q 105 -47 124 -30 q 144 -12 144 28 l 66 28 l 66 173 l 210 173 l 210 44 q 210 -25 180 -63 q 151 -101 89 -102 z m 65 427 l 65 573 l 209 573 l 209 427 z"},"J":{"x_min":0,"x_max":339,"ha":339,"o":"m 12 -21 l 12 95 q 41 95 61 98 q 81 102 92 112 q 103 121 108 139 q 113 157 113 186 l 113 810 l 278 810 l 278 179 q 278 112 262 68 q 246 23 206 1 q 165 -21 92 -21 z"},"V":{"x_min":0,"x_max":522,"ha":522,"o":"m 176 0 l 22 810 l 165 810 l 261 250 l 351 810 l 500 810 l 346 0 z"},"\"":{"x_min":0,"x_max":340,"ha":340,"o":"m 24 520 l 24 810 l 154 810 l 95 520 z m 198 520 l 198 810 l 328 810 l 270 520 z"},"7":{"x_min":0,"x_max":428,"ha":428,"o":"m 71 0 l 241 692 l 20 692 l 20 810 l 392 810 l 392 708 l 221 0 z"},"S":{"x_min":0,"x_max":505,"ha":505,"o":"m 271 -11 q 196 -11 146 16 q 96 44 70 100 q 45 155 41 241 l 183 265 q 185 215 194 182 q 202 148 220 132 q 237 115 263 115 q 295 115 306 135 q 318 155 318 181 q 318 232 294 266 q 269 301 229 336 l 145 409 q 100 447 72 495 q 43 543 43 613 q 43 713 102 766 q 160 820 262 820 q 323 820 362 800 q 401 780 422 746 q 444 713 452 674 q 461 634 463 595 l 322 574 q 320 611 316 639 q 311 667 298 683 q 284 699 257 699 q 228 699 214 678 q 200 656 200 630 q 200 587 220 560 q 239 532 273 502 l 355 430 q 406 386 442 330 q 479 273 479 190 q 479 133 453 87 q 427 41 380 15 q 334 -11 271 -11 z"},"}":{"x_min":0,"x_max":367,"ha":367,"o":"m 38 -193 l 38 -90 q 64 -90 80 -86 q 95 -82 103 -70 q 111 -59 114 -36 q 116 -13 116 26 l 116 131 q 116 214 134 260 q 151 305 198 316 q 151 327 134 374 q 116 420 116 503 l 116 607 q 116 645 114 668 q 111 692 103 704 q 95 715 80 719 q 64 723 38 723 l 38 826 q 114 826 158 816 q 203 805 224 781 q 245 757 252 716 q 258 675 258 614 l 258 521 q 258 453 262 421 q 265 389 278 380 q 292 370 321 370 l 321 262 q 292 262 278 252 q 265 243 262 212 q 258 180 258 112 l 258 19 q 258 -42 252 -83 q 245 -124 224 -148 q 203 -172 158 -182 q 114 -193 38 -193 z"},"Z":{"x_min":0,"x_max":430,"ha":430,"o":"m 31 0 l 31 102 l 237 698 l 41 698 l 41 810 l 402 810 l 402 720 l 190 112 l 403 112 l 403 0 z"},"x":{"x_min":0,"x_max":431,"ha":431,"o":"m 11 0 l 135 314 l 16 578 l 167 578 l 234 430 l 293 578 l 414 578 l 296 293 l 427 0 l 275 0 l 201 167 l 138 0 z"},")":{"x_min":0,"x_max":314,"ha":314,"o":"m 34 -182 l 34 -76 q 63 -76 80 -49 q 98 -22 108 29 q 117 80 120 152 q 124 225 124 316 q 124 407 121 480 q 118 553 109 605 q 100 657 82 686 q 64 714 34 714 l 34 819 q 98 819 140 793 q 183 767 208 720 q 233 673 246 610 q 258 546 262 472 q 265 397 265 316 q 265 240 262 167 q 258 94 246 30 q 233 -33 208 -80 q 183 -128 140 -155 q 98 -182 34 -182 z"},"&":{"x_min":0,"x_max":578,"ha":578,"o":"m 231 -11 q 176 -11 133 12 q 90 36 66 79 q 43 122 43 180 q 43 257 76 314 q 109 372 159 423 q 139 459 120 496 q 100 532 88 569 q 76 606 76 643 q 76 694 96 734 q 117 774 156 798 q 196 821 252 821 q 304 821 342 800 q 381 779 404 742 q 427 704 427 654 q 427 598 404 554 q 381 510 348 474 q 316 438 287 406 l 387 225 q 397 242 404 271 q 410 300 414 333 q 418 366 419 392 l 529 392 q 529 338 520 294 q 512 249 498 212 q 483 174 464 141 q 475 127 494 118 q 513 108 533 106 l 533 -11 q 526 -12 520 -13 q 514 -14 508 -14 q 482 -13 458 -2 q 435 9 416 26 q 397 42 383 59 q 357 27 319 8 q 281 -11 231 -11 z m 236 93 q 262 93 282 106 q 302 119 316 139 l 212 324 q 189 290 178 256 q 167 221 167 186 q 167 160 175 139 q 183 118 198 106 q 213 93 236 93 z m 242 486 q 258 506 272 536 q 286 565 296 597 q 305 629 305 656 q 305 683 290 698 q 275 712 254 712 q 230 712 216 692 q 203 673 203 643 q 203 601 216 560 q 228 519 242 486 z"},"_":{"x_min":0,"x_max":363,"ha":363,"o":"m 0 -160 l 0 -57 l 363 -57 l 363 -160 z"},"v":{"x_min":0,"x_max":413,"ha":413,"o":"m 127 0 l 11 578 l 157 578 l 210 189 l 260 578 l 405 578 l 288 0 z"},"O":{"x_min":0,"x_max":576,"ha":576,"o":"m 287 -11 q 198 -11 146 21 q 94 53 72 112 q 49 172 49 255 l 49 557 q 49 640 72 699 q 94 758 146 789 q 198 820 287 820 q 377 820 430 788 q 482 757 504 698 q 527 640 527 557 l 527 255 q 527 172 504 112 q 482 53 430 21 q 377 -11 287 -11 z m 287 108 q 319 108 334 122 q 349 137 354 162 q 359 186 359 214 l 359 597 q 359 625 354 649 q 349 673 334 688 q 319 702 287 702 q 257 702 242 688 q 227 673 222 649 q 217 625 217 597 l 217 214 q 217 186 222 162 q 226 137 241 122 q 256 108 287 108 z"},"(":{"x_min":0,"x_max":329,"ha":329,"o":"m 296 -182 q 231 -182 189 -156 q 147 -129 122 -81 q 96 -33 84 30 q 71 93 68 166 q 64 239 64 315 q 64 396 68 470 q 71 545 84 608 q 96 672 122 719 q 147 766 189 792 q 231 819 296 819 l 296 714 q 266 713 248 684 q 230 656 220 604 q 210 551 207 478 q 204 405 204 315 q 204 224 208 152 q 211 79 221 28 q 231 -22 249 -49 q 267 -76 296 -77 z"},"C":{"x_min":0,"x_max":553,"ha":553,"o":"m 286 -11 q 196 -11 144 23 q 91 57 70 118 q 49 178 49 258 l 49 549 q 49 633 70 694 q 91 754 144 787 q 196 820 286 820 q 373 820 422 791 q 472 762 492 709 q 513 656 513 586 l 513 518 l 353 518 l 353 594 q 353 622 350 646 q 347 671 334 686 q 320 702 287 702 q 254 702 239 686 q 224 670 220 644 q 216 619 216 588 l 216 220 q 216 186 222 160 q 227 135 242 122 q 258 108 287 108 q 319 108 332 124 q 346 139 350 165 q 353 191 353 220 l 353 299 l 513 299 l 513 232 q 513 161 493 106 q 473 52 424 20 q 375 -11 286 -11 z"},"W":{"x_min":0,"x_max":704,"ha":704,"o":"m 134 0 l 29 810 l 169 810 l 225 315 l 296 809 l 407 809 l 481 316 l 537 810 l 675 810 l 571 0 l 431 0 l 352 513 l 277 0 z"},"A":{"x_min":0,"x_max":538,"ha":538,"o":"m 21 0 l 178 810 l 361 810 l 517 0 l 364 0 l 335 178 l 207 178 l 176 0 z m 222 279 l 319 279 l 270 606 z"},"f":{"x_min":0,"x_max":313,"ha":313,"o":"m 75 0 l 75 475 l 17 475 l 17 578 l 75 578 l 75 618 q 75 670 86 708 q 96 746 128 767 q 160 788 226 788 q 246 788 264 787 q 281 786 303 783 l 303 671 q 295 673 286 674 q 276 676 267 676 q 246 676 236 664 q 226 651 226 624 l 226 578 l 303 578 l 303 475 l 226 475 l 226 0 z"},"Q":{"x_min":0,"x_max":576,"ha":576,"o":"m 466 -160 q 443 -149 413 -126 q 383 -103 354 -72 q 325 -42 305 -10 q 301 -11 296 -11 q 292 -11 287 -11 q 198 -11 146 21 q 94 53 72 112 q 49 172 49 255 l 49 557 q 49 640 72 699 q 94 758 146 789 q 198 820 287 820 q 377 820 430 788 q 482 757 504 698 q 527 640 527 557 l 527 255 q 527 197 516 150 q 506 104 482 70 q 458 36 418 16 q 431 2 445 -12 q 459 -26 473 -38 q 487 -50 500 -58 z m 287 108 q 319 108 334 122 q 349 137 354 162 q 359 186 359 214 l 359 597 q 359 625 354 649 q 349 673 334 688 q 319 702 287 702 q 256 702 241 688 q 226 673 222 649 q 217 625 217 597 l 217 214 q 217 186 222 162 q 226 137 241 122 q 256 108 287 108 z"},"w":{"x_min":0,"x_max":595,"ha":595,"o":"m 109 0 l 22 578 l 148 578 l 194 229 l 246 578 l 356 578 l 403 223 l 455 578 l 573 578 l 484 0 l 355 0 l 299 343 l 238 0 z"},"-":{"x_min":0,"x_max":372,"ha":372,"o":"m 61 291 l 61 390 l 312 390 l 312 291 z"},"E":{"x_min":0,"x_max":438,"ha":438,"o":"m 61 0 l 61 810 l 414 810 l 414 696 l 226 696 l 226 481 l 371 481 l 371 366 l 226 366 l 226 112 l 416 112 l 416 0 z"},"s":{"x_min":0,"x_max":413,"ha":413,"o":"m 220 -10 q 145 -10 96 26 q 48 63 21 139 l 127 183 q 142 141 163 118 q 184 94 212 94 q 233 94 244 104 q 254 113 254 130 q 254 154 238 173 q 222 192 181 226 l 127 272 q 85 308 60 344 q 34 379 34 432 q 34 479 58 514 q 81 549 120 568 q 160 588 206 588 q 277 588 322 548 q 368 507 384 438 l 286 394 q 280 416 270 436 q 260 455 244 468 q 229 481 210 481 q 192 481 181 470 q 170 459 170 442 q 170 424 188 404 q 207 384 240 356 l 294 308 q 318 287 341 264 q 364 240 379 212 q 394 183 394 146 q 394 96 370 61 q 346 26 306 8 q 267 -10 220 -10 z"},">":{"x_min":0,"x_max":393,"ha":393,"o":"m 55 86 l 55 220 l 251 362 l 55 502 l 55 636 l 360 422 l 360 300 z"},"l":{"x_min":0,"x_max":264,"ha":264,"o":"m 59 0 l 59 810 l 210 810 l 210 0 z"},"8":{"x_min":0,"x_max":516,"ha":516,"o":"m 258 -12 q 178 -12 130 20 q 82 51 62 108 q 41 165 41 238 q 41 271 47 300 q 53 329 65 353 q 77 377 94 396 q 112 414 136 426 q 103 450 78 494 q 54 537 53 604 q 52 671 75 720 q 98 768 144 794 q 190 820 258 820 q 327 820 372 794 q 418 768 440 720 q 462 671 461 604 q 460 536 436 492 q 413 449 379 426 q 403 414 420 396 q 438 377 450 353 q 462 329 468 300 q 475 271 475 238 q 477 165 456 108 q 434 51 386 20 q 339 -12 258 -12 z m 258 103 q 287 103 301 123 q 315 143 319 172 q 323 201 323 228 q 324 260 320 290 q 315 320 301 339 q 287 358 258 358 q 230 358 216 339 q 201 320 196 290 q 192 261 192 228 q 192 201 196 172 q 200 142 214 122 q 229 103 258 103 z m 258 484 q 278 484 290 499 q 303 514 309 542 q 315 570 315 608 q 315 651 302 678 q 288 704 258 704 q 228 704 214 678 q 199 651 199 609 q 199 571 204 542 q 210 514 224 499 q 237 484 258 484 z"},"\\":{"x_min":0,"x_max":411,"ha":411,"o":"m 282 0 l 40 810 l 129 810 l 371 0 z"},"e":{"x_min":0,"x_max":460,"ha":460,"o":"m 234 -10 q 170 -10 127 14 q 84 37 62 82 q 40 128 40 192 l 40 386 q 40 452 62 496 q 84 541 128 564 q 172 588 234 588 q 300 588 341 564 q 382 540 402 494 q 421 448 421 382 l 421 281 l 189 281 l 189 169 q 189 144 194 128 q 200 112 210 106 q 220 99 235 99 q 249 99 260 106 q 270 112 275 126 q 280 140 280 163 l 280 218 l 420 218 l 420 170 q 420 82 372 36 q 324 -10 234 -10 z m 189 353 l 280 353 l 280 410 q 280 435 275 450 q 270 466 260 472 q 249 479 233 479 q 218 479 208 472 q 199 465 194 448 q 189 430 189 398 z"},"b":{"x_min":0,"x_max":493,"ha":493,"o":"m 322 -10 q 290 -10 260 5 q 230 20 203 44 l 203 0 l 52 0 l 52 810 l 203 810 l 203 535 q 231 560 262 574 q 293 588 326 588 q 361 588 385 572 q 409 557 424 531 q 439 505 445 473 q 451 441 451 408 l 451 182 q 451 126 437 83 q 423 40 394 15 q 366 -10 322 -10 z m 255 91 q 273 91 283 102 q 293 114 296 133 q 300 152 300 175 l 300 417 q 300 438 296 455 q 292 472 282 482 q 273 493 255 493 q 241 493 228 486 q 215 480 203 471 l 203 109 q 215 101 228 96 q 241 91 255 91 z"},"%":{"x_min":0,"x_max":982,"ha":982,"o":"m 323 0 l 566 810 l 657 810 l 414 0 z m 225 356 q 127 356 85 409 q 43 462 43 566 l 43 607 q 43 713 84 762 q 125 812 225 812 q 326 812 367 764 q 408 715 408 610 l 408 563 q 408 461 366 408 q 325 356 225 356 z m 225 455 q 251 455 263 469 q 275 483 278 509 q 281 535 281 570 l 281 605 q 281 658 274 685 q 266 712 225 712 q 185 712 177 686 q 169 659 169 605 l 169 569 q 169 534 172 508 q 176 483 188 469 q 200 455 225 455 z m 755 -2 q 656 -2 614 51 q 573 104 573 207 l 573 249 q 573 354 614 404 q 654 454 755 454 q 856 454 897 406 q 938 357 938 252 l 938 206 q 938 102 896 50 q 854 -2 755 -2 z m 755 97 q 781 97 792 111 q 804 125 808 150 q 811 176 811 210 l 811 247 q 811 301 803 328 q 795 354 755 354 q 715 354 707 327 q 699 300 699 247 l 699 210 q 699 176 702 150 q 705 125 718 111 q 730 97 755 97 z"},"m":{"x_min":0,"x_max":737,"ha":737,"o":"m 52 0 l 52 578 l 199 578 l 199 530 q 230 562 264 576 q 299 589 335 589 q 370 589 396 572 q 421 554 433 519 q 467 557 504 573 q 541 589 580 589 q 612 589 637 573 q 662 557 676 526 q 690 495 690 450 l 690 0 l 543 0 l 543 435 q 543 463 534 474 q 524 486 505 486 q 493 486 476 479 q 459 472 444 459 q 444 457 444 455 q 444 453 444 450 l 444 0 l 299 0 l 299 435 q 299 463 289 474 q 279 486 260 486 q 247 486 230 479 q 214 472 199 459 l 199 0 z"},"#":{"x_min":0,"x_max":524,"ha":524,"o":"m 63 0 l 96 273 l 44 273 l 46 370 l 110 370 l 124 482 l 47 482 l 49 581 l 140 581 l 168 810 l 274 810 l 246 581 l 326 581 l 354 810 l 459 810 l 431 581 l 481 581 l 479 482 l 414 482 l 401 370 l 477 370 l 474 273 l 387 273 l 353 0 l 248 0 l 282 273 l 202 273 l 168 0 z m 214 370 l 296 370 l 310 482 l 229 482 z"},",":{"x_min":0,"x_max":227,"ha":227,"o":"m 66 -138 l 54 -87 q 80 -79 101 -60 q 122 -40 122 0 l 43 0 l 43 146 l 188 146 l 188 17 q 187 -53 157 -92 q 127 -131 66 -138 z"},"n":{"x_min":0,"x_max":493,"ha":493,"o":"m 52 0 l 52 578 l 203 578 l 203 520 q 234 551 268 570 q 303 588 342 588 q 378 588 400 570 q 423 552 434 522 q 445 493 445 456 l 445 0 l 295 0 l 295 431 q 295 455 288 467 q 280 479 259 479 q 247 479 232 472 q 218 466 203 455 l 203 0 z"},"h":{"x_min":0,"x_max":495,"ha":495,"o":"m 53 0 l 53 810 l 203 810 l 203 525 q 235 556 270 572 q 305 588 346 588 q 381 588 404 570 q 426 552 437 522 q 448 493 448 456 l 448 0 l 297 0 l 297 431 q 297 455 290 467 q 283 479 262 479 q 250 479 234 472 q 219 466 203 455 l 203 0 z"},"z":{"x_min":0,"x_max":382,"ha":382,"o":"m 34 0 l 34 98 l 197 467 l 48 467 l 48 578 l 355 578 l 355 488 l 191 111 l 356 111 l 356 0 z"},"B":{"x_min":0,"x_max":574,"ha":574,"o":"m 61 0 l 61 810 l 266 810 q 319 810 364 801 q 409 792 444 769 q 478 746 496 706 q 515 665 515 600 q 515 551 501 516 q 487 482 461 462 q 435 442 397 435 q 444 428 476 403 q 508 378 524 337 q 540 296 540 238 q 540 177 524 132 q 509 87 479 58 q 449 29 405 14 q 361 0 303 0 z m 226 116 l 272 116 q 334 116 358 147 q 381 178 381 240 q 381 288 370 316 q 359 345 334 358 q 310 372 269 372 l 226 372 z m 226 483 l 267 483 q 310 483 332 496 q 354 508 362 534 q 371 559 371 596 q 371 633 358 656 q 346 678 320 688 q 295 698 256 698 l 226 698 z"},"K":{"x_min":0,"x_max":552,"ha":552,"o":"m 61 0 l 61 810 l 226 810 l 226 468 l 372 810 l 532 810 l 380 446 l 543 0 l 377 0 l 252 363 l 226 317 l 226 0 z"},"R":{"x_min":0,"x_max":583,"ha":583,"o":"m 61 0 l 61 810 l 271 810 q 353 810 412 792 q 470 773 502 726 q 533 679 533 596 q 533 546 524 508 q 516 469 494 440 q 473 412 434 395 l 546 0 l 377 0 l 284 367 l 226 367 l 226 0 z m 226 465 l 274 465 q 314 465 337 478 q 360 491 370 518 q 379 544 379 583 q 379 639 358 668 q 338 698 282 698 l 226 698 z"},"T":{"x_min":0,"x_max":438,"ha":438,"o":"m 137 0 l 137 687 l 12 687 l 12 810 l 426 810 l 426 687 l 303 687 l 303 0 z"},"P":{"x_min":0,"x_max":552,"ha":552,"o":"m 61 0 l 61 810 l 318 810 q 391 810 437 782 q 483 755 506 703 q 528 651 528 577 q 528 490 498 441 q 469 392 418 372 q 367 351 301 351 l 226 351 l 226 0 z m 226 467 l 284 467 q 320 467 340 478 q 359 490 366 515 q 373 540 373 579 q 373 616 368 641 q 362 666 343 680 q 324 694 283 694 l 226 694 z"},"|":{"x_min":0,"x_max":257,"ha":257,"o":"m 65 -173 l 66 810 l 192 810 l 192 -173 z"},"t":{"x_min":0,"x_max":344,"ha":344,"o":"m 225 -6 q 165 -6 131 12 q 97 31 84 66 q 71 101 71 151 l 71 479 l 14 479 l 14 578 l 71 578 l 71 753 l 224 753 l 224 578 l 308 578 l 308 479 l 224 479 l 224 165 q 224 138 238 126 q 251 115 275 115 q 287 115 298 116 q 309 118 318 119 l 318 1 q 304 -1 278 -4 q 252 -6 225 -6 z"},"M":{"x_min":0,"x_max":695,"ha":695,"o":"m 58 0 l 72 810 l 247 810 l 347 299 l 454 810 l 623 810 l 637 0 l 517 0 l 504 549 l 401 0 l 298 0 l 190 553 l 179 0 z"},"g":{"x_min":0,"x_max":487,"ha":487,"o":"m 232 -196 q 169 -196 122 -183 q 76 -170 50 -144 q 24 -119 24 -79 q 24 -52 36 -30 q 47 -9 68 7 q 88 23 112 35 q 77 45 58 66 q 38 87 38 120 q 38 155 55 180 q 72 205 102 231 q 72 256 57 293 q 42 330 42 386 q 42 451 65 496 q 88 541 132 564 q 177 588 240 588 q 285 588 318 576 q 351 563 373 539 q 383 554 402 570 q 421 587 445 599 l 465 608 l 501 532 q 491 529 474 522 q 456 515 438 507 q 421 499 409 492 q 419 471 425 442 q 431 413 431 384 q 431 323 410 278 q 389 233 347 209 q 305 185 240 185 q 215 185 192 189 q 170 193 150 199 q 144 191 140 182 q 135 172 135 162 q 135 150 146 143 q 158 136 188 133 l 327 118 q 400 110 434 72 q 469 33 469 -31 q 469 -84 445 -121 q 421 -158 368 -177 q 316 -196 232 -196 z m 250 -85 q 305 -85 334 -75 q 363 -65 363 -36 q 363 -22 356 -12 q 348 -3 330 3 q 311 9 278 12 l 174 22 q 164 14 156 5 q 148 -4 143 -14 q 138 -24 138 -36 q 138 -60 164 -72 q 189 -85 250 -85 z m 240 277 q 256 277 266 283 q 276 289 281 302 q 286 315 288 336 q 290 357 290 386 q 290 415 288 436 q 286 456 281 470 q 276 483 266 489 q 256 495 240 495 q 225 495 214 489 q 204 483 199 470 q 194 457 192 436 q 190 415 190 386 q 190 358 192 338 q 194 317 199 304 q 204 290 214 284 q 224 277 240 277 z"},"j":{"x_min":0,"x_max":267,"ha":267,"o":"m 69 -173 q 48 -173 28 -170 q 7 -167 -11 -161 l -11 -53 q -5 -54 3 -55 q 11 -56 18 -56 q 34 -56 44 -50 q 54 -45 60 -33 q 65 -21 65 -3 l 65 578 l 216 578 l 216 -21 q 216 -89 178 -131 q 141 -173 69 -173 z m 65 673 l 65 786 l 216 786 l 216 673 z"},"i":{"x_min":0,"x_max":257,"ha":257,"o":"m 54 0 l 54 578 l 205 578 l 205 0 z m 53 673 l 53 786 l 205 786 l 205 673 z"},"y":{"x_min":0,"x_max":436,"ha":436,"o":"m 62 -163 l 62 -57 q 95 -57 116 -53 q 137 -49 148 -38 q 158 -28 158 -9 q 158 6 152 32 q 145 58 137 90 l 5 578 l 148 578 l 222 223 l 282 578 l 426 578 l 292 -18 q 280 -74 252 -106 q 225 -137 186 -150 q 146 -163 94 -163 z"},"@":{"x_min":0,"x_max":940,"ha":940,"o":"m 472 -128 q 364 -128 282 -97 q 201 -66 147 -6 q 93 54 70 140 q 48 226 57 336 q 66 446 102 534 q 139 622 201 683 q 263 744 348 777 q 432 810 536 810 q 638 810 712 778 q 785 746 830 688 q 876 631 894 555 q 913 479 906 391 q 903 340 886 288 q 870 237 839 194 q 808 151 762 126 q 716 100 655 100 q 628 100 602 108 q 576 116 558 134 q 539 151 531 177 q 521 150 496 130 q 471 109 436 106 q 382 102 343 128 q 304 154 286 202 q 267 249 268 307 q 270 353 284 406 q 298 459 326 506 q 355 552 398 582 q 440 611 497 611 q 519 611 534 600 q 548 588 556 574 q 565 560 570 551 l 580 605 l 698 605 l 653 269 q 651 256 650 237 q 648 218 651 202 q 654 187 666 184 q 689 180 712 194 q 734 207 754 236 q 773 264 786 303 q 798 342 801 388 q 808 461 796 520 q 783 580 750 624 q 716 668 661 692 q 606 716 525 716 q 441 716 378 687 q 314 658 270 607 q 226 556 202 487 q 177 418 171 339 q 165 268 172 210 q 180 151 203 106 q 226 61 264 30 q 303 -1 358 -17 q 414 -33 486 -33 q 512 -33 546 -29 q 580 -25 616 -18 q 651 -10 681 -1 l 699 -96 q 643 -109 584 -118 q 526 -128 472 -128 z m 468 209 q 477 210 498 220 q 518 229 526 253 l 558 489 q 555 495 545 498 q 535 501 528 501 q 488 501 460 472 q 431 442 416 398 q 401 353 400 306 q 400 279 406 256 q 413 233 428 220 q 444 207 468 209 z"},".":{"x_min":0,"x_max":232,"ha":232,"o":"m 47 0 l 47 147 l 191 147 l 191 0 z"},"p":{"x_min":0,"x_max":492,"ha":492,"o":"m 52 -190 l 52 578 l 203 578 l 203 535 q 230 560 262 574 q 293 588 325 588 q 360 588 384 572 q 408 557 423 531 q 438 505 444 473 q 450 441 450 408 l 450 182 q 450 126 436 83 q 422 40 394 15 q 365 -10 320 -10 q 289 -10 260 5 q 230 20 203 44 l 203 -190 z m 253 91 q 272 91 282 102 q 291 114 295 133 q 299 152 299 175 l 299 417 q 299 438 295 455 q 291 472 281 482 q 271 493 254 493 q 240 493 227 486 q 214 480 203 470 l 203 108 q 215 100 227 96 q 239 91 253 91 z"},"X":{"x_min":0,"x_max":508,"ha":508,"o":"m 8 0 l 168 433 l 14 810 l 170 810 l 266 577 l 347 810 l 486 810 l 338 395 l 500 0 l 346 0 l 240 255 l 147 0 z"},"*":{"x_min":0,"x_max":418,"ha":418,"o":"m 165 454 l 77 507 l 150 611 l 41 653 l 75 744 l 175 688 l 163 810 l 276 810 l 263 688 l 364 744 l 398 652 l 288 610 l 362 507 l 272 454 l 219 564 z"},"Y":{"x_min":0,"x_max":490,"ha":490,"o":"m 167 0 l 167 321 l 9 810 l 164 810 l 251 525 l 332 810 l 482 810 l 326 321 l 326 0 z"},"c":{"x_min":0,"x_max":456,"ha":456,"o":"m 233 -10 q 169 -10 126 14 q 83 39 62 84 q 40 129 40 191 l 40 386 q 40 451 62 496 q 83 540 126 564 q 169 588 233 588 q 295 588 337 568 q 379 549 400 510 q 420 471 420 412 l 420 357 l 276 357 l 276 416 q 276 442 272 456 q 267 471 258 477 q 248 483 233 483 q 218 483 209 476 q 200 468 196 450 q 192 433 192 402 l 192 175 q 192 128 202 112 q 213 95 234 95 q 250 95 259 102 q 268 109 272 124 q 276 139 276 162 l 276 232 l 420 232 l 420 169 q 420 111 399 70 q 378 30 336 10 q 294 -10 233 -10 z"},"!":{"x_min":0,"x_max":247,"ha":247,"o":"m 93 199 l 49 808 l 200 808 l 146 199 z m 47 0 l 47 143 l 191 143 l 191 0 z"},"/":{"x_min":0,"x_max":411,"ha":411,"o":"m 40 0 l 282 810 l 371 810 l 128 0 z"},"[":{"x_min":0,"x_max":334,"ha":334,"o":"m 54 -185 l 54 810 l 299 810 l 299 749 l 177 749 l 177 -123 l 298 -123 l 298 -185 z"},"6":{"x_min":0,"x_max":531,"ha":531,"o":"m 272 -11 q 195 -11 146 24 q 98 58 76 118 q 53 178 53 255 l 53 543 q 53 622 72 685 q 90 748 137 784 q 184 820 271 820 q 346 820 390 796 q 435 773 455 727 q 475 681 475 614 q 475 611 476 608 q 476 604 476 601 l 330 601 q 330 652 320 677 q 310 702 272 702 q 248 702 234 687 q 221 672 216 636 q 210 601 210 539 l 210 456 q 223 478 250 490 q 278 502 314 503 q 378 505 416 474 q 455 444 472 390 q 489 337 489 270 q 489 188 469 124 q 449 60 402 24 q 354 -11 272 -11 z m 274 104 q 299 104 312 121 q 324 138 328 169 q 333 200 333 244 q 333 286 330 318 q 328 349 315 367 q 302 385 272 385 q 258 385 246 380 q 233 374 224 366 q 215 357 210 348 l 210 219 q 210 189 216 162 q 221 136 235 120 q 249 104 274 104 z"},"r":{"x_min":0,"x_max":370,"ha":370,"o":"m 54 0 l 54 578 l 205 578 l 205 485 q 234 536 262 560 q 291 585 330 585 q 337 585 342 584 q 348 584 353 582 l 353 430 q 342 435 328 438 q 314 442 299 442 q 271 442 248 428 q 225 413 205 386 l 205 0 z"},"2":{"x_min":0,"x_max":506,"ha":506,"o":"m 41 0 l 41 109 l 238 412 q 260 446 280 477 q 299 508 312 540 q 324 573 324 610 q 324 649 309 670 q 294 690 266 690 q 236 690 220 674 q 204 657 198 630 q 192 603 192 571 l 192 533 l 41 533 l 41 573 q 41 645 64 701 q 86 757 134 788 q 183 820 262 820 q 369 820 423 764 q 477 708 477 607 q 477 558 462 516 q 447 475 422 436 q 398 398 370 357 l 214 122 l 455 122 l 455 0 z"},"{":{"x_min":0,"x_max":358,"ha":358,"o":"m 329 -193 q 253 -193 209 -182 q 165 -172 144 -148 q 122 -124 116 -83 q 110 -42 110 19 l 110 112 q 110 180 106 212 q 102 243 89 252 q 76 262 46 262 l 46 370 q 76 370 89 380 q 102 389 106 421 q 110 453 110 521 l 110 614 q 110 675 116 716 q 122 757 144 781 q 165 805 209 816 q 253 826 329 826 l 329 723 q 303 723 288 719 q 272 715 264 704 q 257 692 254 668 q 252 645 252 607 l 252 503 q 252 420 234 374 q 217 327 170 316 q 217 305 234 260 q 252 214 252 131 l 252 26 q 252 -13 254 -36 q 257 -59 264 -70 q 272 -82 288 -86 q 303 -90 329 -90 z"},"9":{"x_min":0,"x_max":530,"ha":530,"o":"m 258 -11 q 183 -11 138 12 q 93 36 73 82 q 53 129 53 196 q 53 199 53 202 q 53 205 53 208 l 199 208 q 199 157 210 132 q 220 107 259 107 q 283 107 296 122 q 309 137 314 173 q 319 209 319 270 l 319 353 q 305 331 278 319 q 251 307 216 306 q 151 305 112 338 q 73 370 56 425 q 40 480 40 547 q 40 630 61 691 q 82 752 130 786 q 179 820 258 820 q 335 820 383 788 q 431 755 453 697 q 475 639 475 561 l 475 266 q 475 187 457 124 q 439 61 392 25 q 345 -11 258 -11 z m 259 424 q 282 424 296 436 q 311 449 319 461 l 319 590 q 319 621 314 647 q 309 673 296 689 q 283 705 258 705 q 233 705 220 688 q 207 671 202 640 q 198 609 198 565 q 198 524 201 492 q 204 460 216 442 q 229 424 259 424 z"}," ":{"x_min":0,"x_max":250,"ha":250,"o":""},"I":{"x_min":0,"x_max":290,"ha":290,"o":"m 63 0 l 63 810 l 227 810 l 227 0 z"},"H":{"x_min":0,"x_max":600,"ha":600,"o":"m 63 0 l 63 810 l 228 810 l 228 477 l 371 477 l 371 810 l 536 810 l 536 0 l 371 0 l 371 359 l 228 359 l 228 0 z"},"4":{"x_min":0,"x_max":515,"ha":515,"o":"m 274 0 l 274 189 l 28 189 l 28 310 l 239 810 l 419 810 l 419 307 l 497 307 l 497 189 l 419 189 l 419 0 z m 150 307 l 274 307 l 274 651 z"},"~":{"x_min":0,"x_max":474,"ha":474,"o":"m 320 339 q 293 339 262 354 q 232 368 204 382 q 177 397 157 397 q 146 397 126 385 q 105 373 88 351 l 39 416 q 52 436 72 456 q 92 476 114 490 q 137 504 157 504 q 185 504 215 490 q 245 476 272 462 q 300 447 319 447 q 333 447 352 461 q 371 475 387 493 l 440 437 q 429 415 409 392 q 389 369 366 354 q 343 339 320 339 z"},"D":{"x_min":0,"x_max":573,"ha":573,"o":"m 61 0 l 61 810 l 259 810 q 362 810 420 784 q 477 757 501 700 q 525 644 525 556 l 525 261 q 525 171 501 113 q 477 55 420 28 q 364 0 263 0 z m 226 115 l 261 115 q 307 115 326 130 q 346 144 351 172 q 356 201 356 243 l 356 577 q 356 619 350 644 q 343 670 324 682 q 304 694 260 694 l 226 694 z"},"^":{"x_min":0,"x_max":469,"ha":469,"o":"m 31 478 l 172 810 l 296 810 l 438 478 l 308 478 l 235 683 l 160 478 z"},"0":{"x_min":0,"x_max":543,"ha":543,"o":"m 272 -14 q 199 -14 151 16 q 103 46 79 98 q 55 151 55 220 l 55 583 q 55 654 78 708 q 101 761 149 791 q 197 821 272 821 q 346 821 394 791 q 441 761 464 708 q 487 654 487 583 l 487 220 q 487 151 463 98 q 439 46 391 16 q 343 -14 272 -14 z m 272 122 q 299 122 311 139 q 323 156 327 180 q 331 203 331 223 l 331 580 q 331 602 328 626 q 324 650 312 668 q 300 685 272 685 q 244 685 232 668 q 219 650 216 626 q 212 602 212 580 l 212 223 q 212 203 216 180 q 220 156 233 139 q 246 122 272 122 z"},"F":{"x_min":0,"x_max":425,"ha":425,"o":"m 61 0 l 61 810 l 403 810 l 403 698 l 226 698 l 226 479 l 376 479 l 376 364 l 226 364 l 226 0 z"},"`":{"x_min":0,"x_max":301,"ha":301,"o":"m 166 609 l 44 810 l 198 810 l 258 609 z"},"k":{"x_min":0,"x_max":517,"ha":517,"o":"m 52 0 l 52 810 l 202 810 l 202 354 l 347 578 l 515 578 l 365 343 l 513 0 l 350 0 l 247 279 l 202 220 l 202 0 z"},"u":{"x_min":0,"x_max":490,"ha":490,"o":"m 150 -10 q 115 -10 92 8 q 68 26 57 56 q 46 86 46 122 l 46 578 l 197 578 l 197 144 q 197 120 205 108 q 213 95 234 95 q 246 95 260 102 q 273 108 287 117 l 287 578 l 438 578 l 438 0 l 287 0 l 287 54 q 257 25 222 8 q 188 -10 150 -10 z"},"]":{"x_min":0,"x_max":321,"ha":321,"o":"m 23 -185 l 23 -123 l 144 -123 l 143 748 l 22 748 l 22 810 l 267 810 l 267 -185 z"},"U":{"x_min":0,"x_max":578,"ha":578,"o":"m 289 -11 q 197 -11 146 20 q 95 52 74 112 q 54 171 54 256 l 54 810 l 217 810 l 217 233 q 217 203 222 174 q 226 145 242 127 q 257 109 289 109 q 322 109 338 127 q 353 145 357 174 q 361 203 361 233 l 361 810 l 524 810 l 524 256 q 524 171 504 112 q 483 52 432 20 q 381 -11 289 -11 z"},"o":{"x_min":0,"x_max":471,"ha":471,"o":"m 235 -10 q 173 -10 129 12 q 85 35 62 78 q 40 121 40 185 l 40 393 q 40 457 62 500 q 85 543 129 566 q 173 588 235 588 q 297 588 341 566 q 385 543 408 500 q 431 457 431 393 l 431 185 q 431 121 408 78 q 385 35 341 12 q 297 -10 235 -10 z m 236 92 q 255 92 265 102 q 275 113 278 132 q 281 150 281 174 l 281 403 q 281 428 278 446 q 275 464 265 475 q 255 486 236 486 q 217 486 207 475 q 197 464 194 446 q 190 428 190 403 l 190 174 q 190 150 194 132 q 197 113 207 102 q 217 92 236 92 z"},"N":{"x_min":0,"x_max":554,"ha":554,"o":"m 61 0 l 61 810 l 176 810 l 356 388 l 356 810 l 492 810 l 492 0 l 382 0 l 202 448 l 202 0 z"},"+":{"x_min":0,"x_max":441,"ha":441,"o":"m 169 208 l 169 369 l 26 369 l 26 461 l 169 461 l 169 618 l 271 618 l 271 461 l 416 461 l 416 369 l 271 369 l 271 208 z"},"G":{"x_min":0,"x_max":572,"ha":572,"o":"m 268 -12 q 186 -12 138 22 q 90 57 70 120 q 49 184 49 268 l 49 539 q 49 626 70 689 q 91 752 144 786 q 196 820 286 820 q 373 820 424 791 q 474 762 496 709 q 518 656 518 583 l 518 536 l 357 536 l 357 593 q 357 625 353 650 q 349 674 334 688 q 320 702 288 702 q 255 702 240 685 q 225 668 221 642 q 217 615 217 585 l 217 226 q 217 192 223 165 q 229 138 246 123 q 262 108 293 108 q 324 108 341 124 q 358 140 364 168 q 371 195 371 230 l 371 316 l 292 316 l 292 416 l 520 416 l 520 0 l 412 0 l 402 73 q 386 36 354 12 q 322 -12 268 -12 z"},"q":{"x_min":0,"x_max":491,"ha":491,"o":"m 290 -190 l 290 46 q 264 20 236 5 q 209 -10 179 -10 q 112 -10 77 37 q 42 84 42 181 l 42 393 q 42 449 56 493 q 71 537 101 562 q 131 588 178 588 q 210 588 238 575 q 266 562 290 539 l 290 578 l 441 578 l 441 -190 z m 241 90 q 251 90 264 95 q 277 100 290 107 l 290 473 q 279 481 266 486 q 254 490 242 490 q 216 490 205 468 q 194 446 194 415 l 194 171 q 194 148 198 130 q 203 111 213 100 q 223 90 241 90 z"},"d":{"x_min":0,"x_max":490,"ha":490,"o":"m 179 -10 q 113 -10 78 37 q 42 84 42 181 l 42 393 q 42 449 56 493 q 71 537 101 562 q 131 588 178 588 q 209 588 237 575 q 265 562 288 542 l 288 810 l 439 810 l 439 0 l 288 0 l 288 43 q 263 19 236 4 q 208 -10 179 -10 z m 240 90 q 250 90 262 94 q 275 99 288 107 l 288 475 q 277 481 265 486 q 253 490 241 490 q 215 490 204 468 q 194 446 194 415 l 194 171 q 194 148 198 130 q 202 111 212 100 q 222 90 240 90 z"},"1":{"x_min":0,"x_max":390,"ha":390,"o":"m 141 0 l 141 650 q 132 645 116 640 q 101 634 83 628 q 65 621 49 616 q 33 610 24 606 l 24 720 q 36 726 56 736 q 77 746 100 758 q 123 770 144 784 q 164 798 175 810 l 295 810 l 295 0 z"},"5":{"x_min":0,"x_max":502,"ha":502,"o":"m 252 -14 q 167 -14 122 17 q 77 48 60 104 q 44 160 44 235 l 193 235 q 193 191 198 161 q 204 131 218 116 q 233 101 262 102 q 291 103 304 124 q 317 145 320 184 q 323 223 323 276 q 323 319 318 352 q 313 385 298 404 q 284 423 254 423 q 227 423 210 404 q 192 385 184 350 l 52 350 l 63 810 l 435 810 l 435 677 l 190 677 l 181 498 q 193 513 222 524 q 250 535 283 537 q 346 543 388 513 q 429 483 449 424 q 469 366 469 282 q 469 218 461 164 q 453 109 430 70 q 407 30 364 8 q 321 -14 252 -14 z"}}}
